<svg id="Layer_1" data-name="Layer 1" xmlns="http://www.w3.org/2000/svg" viewBox="0 0 787.75 538.37"><defs><style>.cls-1{fill:#ccc;}.cls-2{fill:#fff;}</style></defs><title>Icon White Vector</title><path class="cls-1" d="M392.7,441.15c-2.74-.16-5.22-.2-7.74-.2s-5.12,0-7.76.09l-3.15.06c-8.19,0-14.76-4.48-18-12.28a388.35,388.35,0,0,1-19.79-62.67c-5.67,4.37-11.15,8.42-17,12.3a95.13,95.13,0,0,1-127-19.48c-4.13-5.06-8.16-10.17-12.2-15.35a55.06,55.06,0,0,1-8-54.48,58.7,58.7,0,0,1,3-6.26,79.64,79.64,0,0,1-59.35-64.57c-1.76-10.8-3.89-21.95-6.51-34.09L108,179c-.89-4.21-1.77-8.38-2.56-12.6A41.7,41.7,0,0,1,116.15,130a42.45,42.45,0,0,1,31.52-13.86,43.7,43.7,0,0,1,4.41.22c44.85,4.6,90.78,16.09,140.09,35.08a40.88,40.88,0,0,1-4.34-12.09,21.93,21.93,0,0,1-.47-3.27,19.22,19.22,0,0,1-.12-2.65l.78-45,27.59,33.4a24.72,24.72,0,0,0,6.46,5.1,163.8,163.8,0,0,0,16.09,7.85c3.6,1.59,7.16,3.23,10.73,5,8.33,4.09,17.08,8.68,24.56,15.94A44.72,44.72,0,0,1,382,167c4.29-8.26,10.82-13.61,15.61-17,8.16-5.93,16.84-9.89,24.5-13.38l2.65-1.19c3.8-1.69,7.65-3.43,11.41-5.27,5.24-2.6,9.2-4.71,12.14-8.13l30.91-33.46-2.37,44.09a38.14,38.14,0,0,1-5,18.88h0c2.71-1,5.41-2.08,8.09-3.07,38.68-14.37,75-24,111.06-29.36,7.66-1.18,14.86-2.07,22-2.7,1.25-.11,2.48-.16,3.71-.16a42.16,42.16,0,0,1,31.42,14,41.66,41.66,0,0,1,10.47,36.23c-.67,3.45-1.39,6.83-2.16,10.21l-.5,2.31c-.69,3.18-1.38,6.36-1.94,9.58-1.58,9.06-3.31,18.12-5.1,27.13l-1.17,6a78.51,78.51,0,0,1-58.64,61.3,58.59,58.59,0,0,1,3.37,7.34,55,55,0,0,1-8.58,53.57c-1.48,1.83-2.87,3.65-4.26,5.47l-.34.45a150,150,0,0,1-14.42,17c-18.43,17.88-42.22,27.73-67,27.73h0c-21.83,0-42.94-7.46-61.06-21.57-1.66-1.29-3.31-2.57-5-3.84a370.65,370.65,0,0,1-19.36,59.57c-3.39,8-10.2,12.54-18.69,12.54Zm-30-106.32c.24.89.41,1.72.56,2.49,5.32,27.89,11.56,50.62,19.6,71.42l2.67,0c6.8-17.09,12.42-36.12,17.15-58.05.64-2.81,1.18-5.52,1.71-8.22l3.66-18.16,14.13.88a19.24,19.24,0,0,1,11.19,4.5l9.77,7.39c4.58,3.48,9.14,6.93,13.65,10.46,12.21,9.52,26.36,14.55,40.94,14.55a63.52,63.52,0,0,0,44.32-18.38,114,114,0,0,0,11.09-13.14l1.74-2.26c1.15-1.5,2.3-3,3.5-4.45A23,23,0,0,0,562,301.46a23.29,23.29,0,0,0-17.51-14.7c-3.85-.75-7.77-1.45-11.64-2.1l-12.14-1.74L513.86,251l17.14.36c1.15,0,2.2,0,3.3,0,4,.15,8,.36,11.93.61l1.67.09c7.46.37,15.16.76,22.52.76a46.38,46.38,0,0,0,45.44-37.41l1.44-7.35c1.63-8.37,3.25-16.7,4.74-25.12.7-4.25,1.63-8.53,2.68-13.27.7-3.13,1.35-6.21,1.95-9.34a9.83,9.83,0,0,0-2.59-8.58,10,10,0,0,0-7.3-3.39c-.29,0-.58,0-.87,0-6.23.55-12.79,1.35-20.1,2.44-33.75,5-67.93,14.09-104.49,27.71-21.95,8.16-44.65,18-67.48,29.14a21.29,21.29,0,0,1-9.48,2.37,18.62,18.62,0,0,1-11.42-4,55.25,55.25,0,0,0-10.32-6.3c-.24,0-3.36,0-4.68,0s-6.32-.07-7.5-.07c-1.64,0-3.24,0-4.82.08a67.44,67.44,0,0,0-10.57,6.78,19.74,19.74,0,0,1-12.77,4.81,21,21,0,0,1-9.38-2.29c-16.88-8.48-34.31-16.36-51.84-23.43-50.62-20.48-97.17-32.67-142.3-37.26a10.09,10.09,0,0,0-1.09-.06,10.59,10.59,0,0,0-7.73,3.47,9.92,9.92,0,0,0-2.58,8.61c.8,4.32,1.7,8.65,2.66,12.93l.87,4.13c2.72,12.73,4.93,24.37,6.75,35.57A47.3,47.3,0,0,0,194.27,253c.9,0,1.8,0,2.7-.07,9.53-.51,19-.91,28.46-1.32l.41,0c2.2-.07,4.12-.07,6.1-.07l10.33,5.09,2.22,21.88-13-1.85c-5.59,1.12-14.66,1-20.25,2-8.48,1.41-6,14.71-9,22.35a23.22,23.22,0,0,0,3.51,23c3.85,5,7.78,9.93,11.76,14.84a62.58,62.58,0,0,0,83.65,12.89c7.35-4.86,14.42-10.33,21.63-16q5.22-4.05,10.41-8l26.53-18Z"/><path class="cls-2" d="M649.51,133.57a36.9,36.9,0,0,0-30.7-12.2c-6.7.6-13.76,1.46-21.52,2.67-35.49,5.34-71.23,14.87-109.24,29.08-10.33,3.89-20.81,8.12-31.35,12.66,5.45-3.23,12.5-8.32,17.14-16.74a33.43,33.43,0,0,0,4.33-16.48l.26-30.3-19.71,23c-3.58,4.18-8.12,6.6-13.66,9.37-3.78,1.87-7.66,3.63-11.5,5.35l-2,.9c-7.56,3.48-16.13,7.36-24.05,13.16-5.24,3.78-12,9.58-15.47,18.6h-.61c-1.76,0-3.52,0-5.34,0a38,38,0,0,0-9-13.21c-7-6.8-15.22-11.14-23.09-15-3.48-1.71-7-3.32-10.48-4.89A168.61,168.61,0,0,1,327,131.35a29.76,29.76,0,0,1-7.61-6.1L300,103.42v30.05a12.29,12.29,0,0,0,.1,2.11,17.38,17.38,0,0,0,.4,2.88c1.71,9,6.55,16.73,14.42,22.88a71.54,71.54,0,0,0,6.3,4.34q-6-2.66-12.25-5.15c-52.68-21.42-101.32-34.22-148.7-39.11a37.73,37.73,0,0,0-40.83,44c.86,4.59,1.81,9.13,2.77,13.71l.86,4c2.67,12.45,4.79,23.69,6.5,34.32a74.43,74.43,0,0,0,62.15,61.9,50.33,50.33,0,0,0,.81,61.15c4,5.14,8,10.23,12.05,15.27C234,392.25,285.32,400.17,324,374.26c8-5.34,15.52-11.24,22.83-17,5.7,26.42,12.5,48.8,21.12,69.61,2.47,5.95,7.21,9.33,13.66,9.18L384,436c5.45-.1,10.64-.2,15.68.1h1.06c6.3,0,11.34-3.38,13.91-9.48,8.42-19.76,15.17-41.53,20.72-66.38,3.73,2.87,7.46,5.74,11.19,8.67,37.4,29.33,86.95,27,120.47-5.8,5.45-5.34,9.88-11.24,14.17-16.89,1.41-1.86,2.82-3.73,4.28-5.54A50.25,50.25,0,0,0,593.25,292a51.87,51.87,0,0,0-6.85-12.66,73.27,73.27,0,0,0,61.49-58.72l1.16-6c1.77-9,3.48-18,5-27,.71-4.08,1.62-8.11,2.47-12.15.76-3.32,1.47-6.65,2.12-10A36.92,36.92,0,0,0,649.51,133.57Zm-12.6,27.77c-.61,3.18-1.26,6.3-2,9.48-1,4.33-1.92,8.72-2.62,13.05-1.56,8.92-3.28,17.75-5,26.62l-1.16,5.94a51.12,51.12,0,0,1-49.95,41.49h-.1c-8,0-16.34-.45-24.35-.86-3.88-.25-7.81-.45-11.75-.6-1,0-2.06,0-3.12,0l-15.27.15,3.57,13.86,10.69-2.62-10.64,2.72,1.77,6.91,12.65,2.27c3.88.65,7.81,1.36,11.7,2.11A28.17,28.17,0,0,1,568.1,327c-1.56,1.91-3,3.88-4.54,5.85-4,5.24-7.71,10.23-12,14.41-25.31,24.75-62.86,26.52-91.29,4.19-5.7-4.49-11.49-8.88-17.29-13.31L437,333.63a14.18,14.18,0,0,0-8.32-3.43l-9.62-.6-2.72,13.61c-.56,2.82-1.11,5.64-1.77,8.52-5,23.34-11,43.7-18.55,62-3.17,0-6.35,0-9.48.05-8.67-21.88-15.37-46-20.91-75.26-.16-.76-.31-1.56-.56-2.52l-4.33-17.29-17,13c-3.43,2.62-6.86,5.29-10.28,8-7.36,5.8-14.37,11.24-21.78,16.18-29,19.51-67.65,13.51-89.77-13.91-4-4.94-7.92-9.88-11.75-14.92a28.24,28.24,0,0,1,17.95-45.52c5.49-.91,10.93-1.92,16.43-3l-2.22-21.88-2.17-.05c-1.91,0-3.78,0-5.64.05l-.61.05c-9.37.4-18.75.81-28.18,1.31-26.56,1.51-49.85-17.44-54.23-44.06-1.77-11-3.94-22.53-6.66-35.33l-.85-4.08c-1-4.34-1.87-8.72-2.68-13.11a15.12,15.12,0,0,1,3.84-12.95,15.35,15.35,0,0,1,12.95-5c45.27,4.63,91.94,16.93,142.65,37.6,17.74,7.21,35.19,15.17,51.82,23.59A14.38,14.38,0,0,0,369,202.77a75.72,75.72,0,0,1,12.35-7.91c3.18-.15,6.4-.15,9.83-.1,2.52.05,5,.05,7.66,0,.71,0,1.21,0,1.77,0A59.94,59.94,0,0,1,413,202.12c3.17,2.47,8.37,4.64,15.42,1.11,22.69-11.19,45.37-21.07,67.45-29.34,36.54-13.71,70.82-22.88,104.74-28,7.36-1.11,14-1.92,20.22-2.47a14.76,14.76,0,0,1,12.35,5A14.94,14.94,0,0,1,636.91,161.34Z"/><path class="cls-2" d="M114.8,538.37h-52A62.91,62.91,0,0,1,0,475.53V429.91H27.32v45.62a35.55,35.55,0,0,0,35.52,35.52h52Z"/><path class="cls-2" d="M724.91,538.37H673V511.05h51.91a35.55,35.55,0,0,0,35.52-35.52V429.91h27.32v45.62A62.91,62.91,0,0,1,724.91,538.37Z"/><path class="cls-2" d="M27.32,108.52H0V62.84A62.91,62.91,0,0,1,62.84,0h52V27.32h-52A35.55,35.55,0,0,0,27.32,62.84Z"/><path class="cls-2" d="M787.75,108.52H760.43V62.84a35.55,35.55,0,0,0-35.52-35.52H673V0h51.91a62.91,62.91,0,0,1,62.84,62.84Z"/></svg>